<svg width="282" height="44" viewBox="0 0 282 44" fill="none" xmlns="http://www.w3.org/2000/svg">
<path d="M4.40098 25.7971V11.5376H1.77854V9.98049H15.0137V11.5376H13.2107V27.6C13.2107 30.0859 12.8693 31.9844 12.1863 33.2956C11.5307 34.5795 10.6429 35.4537 9.52293 35.918C8.43024 36.3824 7.20098 36.6146 5.83512 36.6146C4.49659 36.6146 3.45854 36.5327 2.72098 36.3688C2.01073 36.2322 1.42341 36.1093 0.959024 36L1.90146 29.0341H7.10537V26.8624C7.10537 26.3161 6.98244 26.002 6.73659 25.92C6.49073 25.838 6.2039 25.7971 5.8761 25.7971H4.40098ZM27.2074 36H16.5947V34.4429H18.3977V11.5376H16.5947V9.98049H27.2074V22.1093H33.3538V9.98049H43.9664V11.5376H42.1635V34.4429H43.9664V36H33.3538V24.3629H27.2074V36ZM69.7622 20.6751V25.2644C69.7622 27.5317 69.5437 29.3893 69.1066 30.8371C68.6695 32.2576 68.0549 33.3776 67.2627 34.1971C66.4705 34.9893 65.5417 35.5629 64.4763 35.918C63.4383 36.2459 62.3046 36.4371 61.0754 36.4917C59.8461 36.5737 58.5759 36.6146 57.2646 36.6146C56.0627 36.6146 54.9017 36.5737 53.7817 36.4917C52.689 36.4371 51.6646 36.2459 50.7085 35.918C49.7798 35.5629 48.9602 34.9893 48.25 34.1971C47.5398 33.3776 46.9798 32.2576 46.57 30.8371C46.1876 29.3893 45.9963 27.5317 45.9963 25.2644V20.6751C45.9963 18.4078 46.2149 16.5639 46.6519 15.1434C47.089 13.7229 47.7037 12.6166 48.4959 11.8244C49.288 11.0049 50.2032 10.4312 51.2412 10.1034C52.3066 9.74829 53.4539 9.54341 54.6832 9.48878C55.9124 9.40683 57.1827 9.36585 58.4939 9.36585C59.6959 9.36585 60.8432 9.40683 61.9359 9.48878C63.0559 9.54341 64.0802 9.74829 65.009 10.1034C65.9651 10.4312 66.7983 11.0049 67.5085 11.8244C68.2188 12.6166 68.7651 13.7229 69.1476 15.1434C69.5573 16.5639 69.7622 18.4078 69.7622 20.6751ZM60.9524 33.6644V12.2751H54.8061V33.6644H60.9524ZM71.8158 11.5376V9.98049H87.5914L93.369 33.5415H95.0489L91.7299 9.98049H99.5563V11.5376H97.7533V36H83.7807L78.4948 12.439H76.8148L79.6421 36H71.8158V34.4429H73.6187V11.5376H71.8158ZM123.878 9.98049V18.5034H119.084L118.059 12.8488H115.724L116.625 19.7327V34.4429H120.067V36H104.373V34.4429H107.815V19.7327L108.717 12.8488H106.381L105.357 18.7493H100.563V9.98049H123.878ZM135.929 36H125.316V34.4429H127.119V11.5376H125.316V9.98049H139.74C141.215 9.98049 142.622 10.0351 143.96 10.1444C145.299 10.2263 146.487 10.4995 147.525 10.9639C148.563 11.4283 149.382 12.1932 149.983 13.2585C150.584 14.2966 150.885 15.7717 150.885 17.6839C150.885 19.4595 150.625 20.8663 150.106 21.9044C149.587 22.9424 148.877 23.7073 147.976 24.199C147.074 24.6907 146.036 25.0322 144.862 25.2234V26.1659H146.705C147.662 26.1659 148.303 26.3434 148.631 26.6985C148.986 27.0263 149.219 27.6683 149.328 28.6244L150.024 34.4429H152.196V36H142.075V27.3951H135.929V36ZM142.075 24.4449V12.8488H135.929V24.4449H142.075ZM159.809 36H150.753V34.4429H152.433L155.998 11.5376H153.457V9.98049H171.978L175.748 34.4429H177.469V36H165.586L165.013 29.8537H159.809V36ZM159.809 12.439V27.6H164.808L163.455 12.439H159.809ZM195.276 22.8059V23.7483H197.12C198.076 23.7483 198.704 23.9122 199.004 24.24C199.305 24.5405 199.551 25.1551 199.742 26.0839L201.381 34.4429H203.717V36H193.596L191.137 24.3629H188.269V36H177.656V34.4429H179.459V11.5376H177.656V9.98049H188.269V22.1093H191.26L193.596 9.98049H203.307V11.5376H201.176L198.554 20.2244C198.28 21.1532 197.857 21.7951 197.283 22.1502C196.737 22.5054 196.068 22.7239 195.276 22.8059ZM227.437 9.98049V18.5034H222.643L221.619 12.8488H219.283L220.185 19.7327V34.4429H223.627V36H207.933V34.4429H211.375V19.7327L212.276 12.8488H209.941L208.916 18.7493H204.122V9.98049H227.437ZM252.232 20.6751V25.2644C252.232 27.5317 252.013 29.3893 251.576 30.8371C251.139 32.2576 250.524 33.3776 249.732 34.1971C248.94 34.9893 248.011 35.5629 246.946 35.918C245.908 36.2459 244.774 36.4371 243.545 36.4917C242.316 36.5737 241.045 36.6146 239.734 36.6146C238.532 36.6146 237.371 36.5737 236.251 36.4917C235.159 36.4371 234.134 36.2459 233.178 35.918C232.249 35.5629 231.43 34.9893 230.72 34.1971C230.009 33.3776 229.449 32.2576 229.04 30.8371C228.657 29.3893 228.466 27.5317 228.466 25.2644V20.6751C228.466 18.4078 228.684 16.5639 229.121 15.1434C229.559 13.7229 230.173 12.6166 230.965 11.8244C231.758 11.0049 232.673 10.4312 233.711 10.1034C234.776 9.74829 235.923 9.54341 237.153 9.48878C238.382 9.40683 239.652 9.36585 240.963 9.36585C242.165 9.36585 243.313 9.40683 244.405 9.48878C245.525 9.54341 246.55 9.74829 247.479 10.1034C248.435 10.4312 249.268 11.0049 249.978 11.8244C250.688 12.6166 251.235 13.7229 251.617 15.1434C252.027 16.5639 252.232 18.4078 252.232 20.6751ZM243.422 33.6644V12.2751H237.276V33.6644H243.422ZM264.898 36H254.285V34.4429H256.088V11.5376H254.285V9.98049H268.709C270.184 9.98049 271.591 10.0351 272.929 10.1444C274.268 10.2263 275.456 10.4995 276.494 10.9639C277.532 11.4283 278.352 12.1932 278.953 13.2585C279.554 14.2966 279.854 15.7717 279.854 17.6839C279.854 19.4595 279.595 20.8663 279.076 21.9044C278.557 22.9424 277.846 23.7073 276.945 24.199C276.043 24.6907 275.005 25.0322 273.831 25.2234V26.1659H275.675C276.631 26.1659 277.273 26.3434 277.6 26.6985C277.956 27.0263 278.188 27.6683 278.297 28.6244L278.994 34.4429H281.165V36H271.044V27.3951H264.898V36ZM271.044 24.4449V12.8488H264.898V24.4449H271.044Z" fill="#FF7420"/>
</svg>
